<?xml version="1.0"?>
<svg version="1.1" xmlns="http://www.w3.org/2000/svg" xmlns:xlink="http://www.w3.org/1999/xlink" width="717.11" height="249.68">
    <desc iVinci="yes" version="4.6" gridStep="20" showGrid="no" snapToGrid="no" codePlatform="0"/>
    <g id="Layer1" name="Layer 1" opacity="1">
        <g id="Shape1">
            <desc shapeID="1" type="2" basicInfo-basicType="0" basicInfo-roundedRectRadius="12" basicInfo-polygonSides="6" basicInfo-starPoints="5" bounding="rect(-333,-103.5,666,207)" text="Odoo Upgrader" font-familyName="Helvetica" font-pixelSize="110" font-bold="0" font-underline="0" font-alignment="1" strokeStyle="0" markerStart="0" markerEnd="0" shadowEnabled="0" shadowOffsetX="0" shadowOffsetY="2" shadowBlur="4" shadowOpacity="160" blurEnabled="0" blurRadius="4" transform="matrix(1,0,0,1,362.5,126)" pers-center="0,0" pers-size="0,0" pers-start="0,0" pers-end="0,0" locked="0" mesh="" flag=""/>
            <path id="shapePath1" d="M270.4,19.1377 C284.329,19.1377 294.642,23.6136 301.338,32.5654 C306.566,39.5479 309.18,48.4818 309.18,59.3672 C309.18,71.1478 306.19,80.9411 300.21,88.7471 C293.192,97.9137 283.184,102.497 270.186,102.497 C258.047,102.497 248.504,98.4867 241.558,90.4658 C235.363,82.7314 232.266,72.9561 232.266,61.1396 C232.266,50.4691 234.915,41.3382 240.215,33.7471 C247.018,24.0075 257.08,19.1377 270.4,19.1377 M271.475,92.9365 C280.892,92.9365 287.704,89.5617 291.912,82.812 C296.119,76.0623 298.223,68.3011 298.223,59.5283 C298.223,50.2542 295.797,42.7884 290.945,37.1309 C286.093,31.4733 279.46,28.6445 271.045,28.6445 C262.881,28.6445 256.221,31.4464 251.064,37.0503 C245.908,42.6541 243.33,50.9167 243.33,61.8379 C243.33,70.5749 245.541,77.9422 249.963,83.9399 C254.386,89.9377 261.556,92.9365 271.475,92.9365 M326.729,72.0967 C326.729,78.2555 328.035,83.4118 330.649,87.5654 C333.263,91.7191 337.453,93.7959 343.218,93.7959 C347.694,93.7959 351.373,91.8713 354.255,88.022 C357.138,84.1727 358.579,78.6494 358.579,71.4521 C358.579,64.1833 357.093,58.8032 354.121,55.312 C351.149,51.8208 347.479,50.0752 343.11,50.0752 C338.241,50.0752 334.293,51.9372 331.267,55.6611 C328.241,59.3851 326.729,64.8636 326.729,72.0967 M341.284,41.6426 C345.688,41.6426 349.377,42.5736 352.349,44.4355 C354.067,45.5098 356.019,47.3896 358.203,50.0752 L358.203,21.0176 L367.495,21.0176 L367.495,100.188 L358.794,100.188 L358.794,92.1846 C356.538,95.7295 353.87,98.2897 350.791,99.8652 C347.712,101.441 344.185,102.229 340.21,102.229 C333.8,102.229 328.25,99.534 323.56,94.145 C318.869,88.756 316.523,81.5856 316.523,72.6338 C316.523,64.2549 318.663,56.995 322.942,50.854 C327.221,44.7131 333.335,41.6426 341.284,41.6426 M404.604,93.957 C411.014,93.957 415.409,91.5311 417.791,86.6792 C420.172,81.8273 421.362,76.4294 421.362,70.4854 C421.362,65.1143 420.503,60.7458 418.784,57.3799 C416.063,52.0804 411.372,49.4307 404.712,49.4307 C398.804,49.4307 394.507,51.6865 391.821,56.1982 C389.136,60.71 387.793,66.1527 387.793,72.5264 C387.793,78.6494 389.136,83.752 391.821,87.834 C394.507,91.916 398.768,93.957 404.604,93.957 M404.98,40.998 C412.393,40.998 418.659,43.4688 423.779,48.4102 C428.9,53.3516 431.46,60.6204 431.46,70.2168 C431.46,79.4909 429.204,87.1536 424.692,93.2051 C420.181,99.2565 413.18,102.282 403.691,102.282 C395.778,102.282 389.494,99.6056 384.839,94.2524 C380.184,88.8992 377.856,81.7109 377.856,72.6875 C377.856,63.0195 380.309,55.321 385.215,49.5918 C390.12,43.8626 396.709,40.998 404.98,40.998 M465.776,93.957 C472.186,93.957 476.581,91.5311 478.962,86.6792 C481.344,81.8273 482.534,76.4294 482.534,70.4854 C482.534,65.1143 481.675,60.7458 479.956,57.3799 C477.235,52.0804 472.544,49.4307 465.884,49.4307 C459.976,49.4307 455.679,51.6865 452.993,56.1982 C450.308,60.71 448.965,66.1527 448.965,72.5264 C448.965,78.6494 450.308,83.752 452.993,87.834 C455.679,91.916 459.94,93.957 465.776,93.957 M466.152,40.998 C473.564,40.998 479.831,43.4688 484.951,48.4102 C490.072,53.3516 492.632,60.6204 492.632,70.2168 C492.632,79.4909 490.376,87.1536 485.864,93.2051 C481.353,99.2565 474.352,102.282 464.863,102.282 C456.95,102.282 450.666,99.6056 446.011,94.2524 C441.356,88.8992 439.028,81.7109 439.028,72.6875 C439.028,63.0195 441.481,55.321 446.387,49.5918 C451.292,43.8626 457.881,40.998 466.152,40.998 M153.215,131.286 L153.215,180.056 C153.215,185.785 154.289,190.547 156.438,194.343 C159.624,200.072 164.995,202.937 172.551,202.937 C181.61,202.937 187.769,199.839 191.027,193.645 C192.782,190.279 193.659,185.749 193.659,180.056 L193.659,131.286 L204.509,131.286 L204.509,175.598 C204.509,185.301 203.202,192.767 200.588,197.995 C195.79,207.52 186.73,212.282 173.41,212.282 C160.09,212.282 151.049,207.52 146.286,197.995 C143.672,192.767 142.365,185.301 142.365,175.598 L142.365,131.286 L153.215,131.286 M244.039,203.688 C248.551,203.688 252.302,201.8 255.292,198.022 C258.281,194.244 259.776,188.596 259.776,181.076 C259.776,176.493 259.114,172.554 257.789,169.26 C255.283,162.922 250.699,159.753 244.039,159.753 C237.343,159.753 232.76,163.101 230.289,169.797 C228.964,173.378 228.302,177.925 228.302,183.439 C228.302,187.88 228.964,191.657 230.289,194.772 C232.796,200.716 237.379,203.688 244.039,203.688 M219.01,152.932 L228.409,152.932 L228.409,160.559 C230.343,157.945 232.455,155.922 234.747,154.489 C238.006,152.341 241.837,151.267 246.241,151.267 C252.758,151.267 258.29,153.764 262.838,158.759 C267.385,163.754 269.659,170.889 269.659,180.163 C269.659,192.696 266.383,201.647 259.83,207.019 C255.676,210.42 250.842,212.121 245.328,212.121 C240.995,212.121 237.361,211.172 234.425,209.274 C232.706,208.2 230.79,206.356 228.678,203.742 L228.678,233.122 L219.01,233.122 L219.01,152.932 M301.236,151.643 C305.748,151.643 309.687,152.753 313.053,154.973 C314.879,156.226 316.741,158.052 318.639,160.451 L318.639,153.2 L327.555,153.2 L327.555,205.515 C327.555,212.819 326.48,218.584 324.332,222.81 C320.322,230.616 312.748,234.519 301.612,234.519 C295.418,234.519 290.208,233.131 285.982,230.356 C281.757,227.581 279.394,223.239 278.893,217.331 L288.722,217.331 C289.187,219.909 290.118,221.896 291.515,223.293 C293.699,225.441 297.136,226.516 301.827,226.516 C309.239,226.516 314.091,223.902 316.383,218.674 C317.743,215.594 318.37,210.098 318.263,202.185 C316.329,205.121 314.002,207.305 311.28,208.737 C308.559,210.17 304.96,210.886 300.484,210.886 C294.254,210.886 288.802,208.675 284.129,204.252 C279.457,199.83 277.12,192.517 277.12,182.312 C277.12,172.679 279.474,165.16 284.183,159.753 C288.892,154.346 294.576,151.643 301.236,151.643 M318.639,181.184 C318.639,174.058 317.171,168.776 314.234,165.339 C311.298,161.901 307.556,160.183 303.009,160.183 C296.205,160.183 291.55,163.369 289.044,169.743 C287.719,173.145 287.057,177.603 287.057,183.117 C287.057,189.598 288.373,194.531 291.004,197.915 C293.636,201.298 297.172,202.99 301.612,202.99 C308.559,202.99 313.447,199.857 316.275,193.591 C317.851,190.046 318.639,185.91 318.639,181.184 M342.374,152.663 L351.559,152.663 L351.559,162.6 C352.311,160.666 354.155,158.312 357.091,155.537 C360.027,152.762 363.411,151.374 367.242,151.374 C367.421,151.374 367.726,151.392 368.155,151.428 C368.585,151.464 369.319,151.535 370.357,151.643 L370.357,161.848 C369.785,161.74 369.256,161.669 368.773,161.633 C368.29,161.597 367.761,161.579 367.188,161.579 C362.319,161.579 358.577,163.146 355.963,166.279 C353.349,169.412 352.042,173.02 352.042,177.102 L352.042,210.188 L342.374,210.188 L342.374,152.663 M386.143,194.88 C386.143,197.673 387.163,199.875 389.204,201.486 C391.245,203.098 393.662,203.903 396.455,203.903 C399.857,203.903 403.151,203.116 406.338,201.54 C411.709,198.926 414.395,194.647 414.395,188.703 L414.395,180.915 C413.213,181.667 411.691,182.294 409.829,182.795 C407.967,183.296 406.141,183.654 404.351,183.869 L398.496,184.621 C394.987,185.087 392.355,185.821 390.601,186.823 C387.629,188.506 386.143,191.192 386.143,194.88 M409.561,175.329 C411.781,175.043 413.267,174.112 414.019,172.536 C414.448,171.677 414.663,170.441 414.663,168.83 C414.663,165.536 413.49,163.146 411.145,161.66 C408.8,160.174 405.443,159.431 401.074,159.431 C396.025,159.431 392.445,160.791 390.332,163.513 C389.15,165.017 388.381,167.255 388.022,170.227 L378.999,170.227 C379.178,163.137 381.479,158.204 385.901,155.429 C390.323,152.654 395.452,151.267 401.289,151.267 C408.057,151.267 413.553,152.556 417.778,155.134 C421.968,157.712 424.062,161.722 424.062,167.165 L424.062,200.305 C424.062,201.307 424.268,202.113 424.68,202.722 C425.092,203.33 425.96,203.635 427.285,203.635 C427.715,203.635 428.198,203.608 428.735,203.554 C429.272,203.5 429.845,203.42 430.454,203.312 L430.454,210.456 C428.95,210.886 427.804,211.154 427.017,211.262 C426.229,211.369 425.155,211.423 423.794,211.423 C420.464,211.423 418.047,210.241 416.543,207.878 C415.755,206.625 415.2,204.852 414.878,202.561 C412.909,205.139 410.08,207.377 406.392,209.274 C402.703,211.172 398.639,212.121 394.199,212.121 C388.864,212.121 384.504,210.501 381.121,207.26 C377.737,204.02 376.045,199.965 376.045,195.095 C376.045,189.759 377.71,185.624 381.04,182.688 C384.37,179.751 388.739,177.943 394.146,177.263 L409.561,175.329 M446.025,182.097 C446.025,188.256 447.332,193.412 449.946,197.565 C452.56,201.719 456.75,203.796 462.515,203.796 C466.991,203.796 470.67,201.871 473.552,198.022 C476.435,194.173 477.876,188.649 477.876,181.452 C477.876,174.183 476.39,168.803 473.418,165.312 C470.446,161.821 466.776,160.075 462.407,160.075 C457.537,160.075 453.59,161.937 450.564,165.661 C447.538,169.385 446.025,174.864 446.025,182.097 M460.581,151.643 C464.985,151.643 468.673,152.574 471.646,154.436 C473.364,155.51 475.316,157.39 477.5,160.075 L477.5,131.018 L486.792,131.018 L486.792,210.188 L478.091,210.188 L478.091,202.185 C475.835,205.729 473.167,208.29 470.088,209.865 C467.008,211.441 463.481,212.229 459.507,212.229 C453.097,212.229 447.547,209.534 442.856,204.145 C438.166,198.756 435.82,191.586 435.82,182.634 C435.82,174.255 437.96,166.995 442.239,160.854 C446.518,154.713 452.632,151.643 460.581,151.643 M525.029,151.374 C529.111,151.374 533.068,152.332 536.899,154.248 C540.731,156.163 543.649,158.643 545.654,161.687 C547.588,164.587 548.877,167.971 549.521,171.838 C550.094,174.488 550.381,178.713 550.381,184.514 L508.218,184.514 C508.397,190.35 509.775,195.032 512.354,198.559 C514.932,202.086 518.924,203.85 524.331,203.85 C529.38,203.85 533.408,202.185 536.416,198.854 C538.135,196.921 539.352,194.683 540.068,192.141 L549.575,192.141 C549.325,194.253 548.492,196.608 547.078,199.204 C545.663,201.8 544.079,203.921 542.324,205.568 C539.388,208.433 535.754,210.367 531.421,211.369 C529.093,211.942 526.462,212.229 523.525,212.229 C516.364,212.229 510.295,209.624 505.317,204.414 C500.34,199.204 497.852,191.908 497.852,182.526 C497.852,173.288 500.358,165.786 505.371,160.021 C510.384,154.257 516.937,151.374 525.029,151.374 M540.444,176.833 C540.05,172.644 539.137,169.296 537.705,166.789 C535.055,162.134 530.633,159.807 524.438,159.807 C519.998,159.807 516.274,161.409 513.267,164.614 C510.259,167.819 508.665,171.892 508.486,176.833 L540.444,176.833 M562.515,152.663 L571.699,152.663 L571.699,162.6 C572.451,160.666 574.295,158.312 577.231,155.537 C580.168,152.762 583.551,151.374 587.383,151.374 C587.562,151.374 587.866,151.392 588.296,151.428 C588.726,151.464 589.46,151.535 590.498,151.643 L590.498,161.848 C589.925,161.74 589.397,161.669 588.914,161.633 C588.43,161.597 587.902,161.579 587.329,161.579 C582.459,161.579 578.717,163.146 576.104,166.279 C573.49,169.412 572.183,173.02 572.183,177.102 L572.183,210.188 L562.515,210.188 L562.515,152.663 Z" style="stroke:none;fill-rule:nonzero;fill:#e80d00;fill-opacity:1;"/>
        </g>
    </g>
</svg>
