<?xml version="1.0"?>
<svg version="1.1" xmlns="http://www.w3.org/2000/svg" xmlns:xlink="http://www.w3.org/1999/xlink" width="717.11" height="249.68">
    <desc iVinci="yes" version="4.6" gridStep="20" showGrid="no" snapToGrid="no" codePlatform="0"/>
    <g id="Layer1" name="Layer 1" opacity="1">
        <g id="Shape1">
            <desc shapeID="1" type="2" basicInfo-basicType="0" basicInfo-roundedRectRadius="12" basicInfo-polygonSides="6" basicInfo-starPoints="5" bounding="rect(-333,-103.5,666,207)" text="Odoo Runbot" font-familyName="Helvetica" font-pixelSize="110" font-bold="0" font-underline="0" font-alignment="1" strokeStyle="0" markerStart="0" markerEnd="0" shadowEnabled="0" shadowOffsetX="0" shadowOffsetY="2" shadowBlur="4" shadowOpacity="160" blurEnabled="0" blurRadius="4" transform="matrix(1,0,0,1,362.5,126)" pers-center="0,0" pers-size="0,0" pers-start="0,0" pers-end="0,0" locked="0" mesh="" flag=""/>
            <path id="shapePath1" d="M77.791,74.1377 C91.7201,74.1377 102.033,78.6136 108.729,87.5654 C113.956,94.5479 116.57,103.482 116.57,114.367 C116.57,126.148 113.58,135.941 107.601,143.747 C100.582,152.914 90.5742,157.497 77.5762,157.497 C65.4375,157.497 55.8949,153.487 48.9482,145.466 C42.7536,137.731 39.6562,127.956 39.6562,116.14 C39.6562,105.469 42.306,96.3382 47.6055,88.7471 C54.4088,79.0075 64.4707,74.1377 77.791,74.1377 M78.8652,147.937 C88.2826,147.937 95.0949,144.562 99.3022,137.812 C103.51,131.062 105.613,123.301 105.613,114.528 C105.613,105.254 103.187,97.7884 98.3354,92.1309 C93.4836,86.4733 86.8503,83.6445 78.4355,83.6445 C70.2715,83.6445 63.6113,86.4465 58.4551,92.0503 C53.2988,97.6541 50.7207,105.917 50.7207,116.838 C50.7207,125.575 52.9318,132.942 57.354,138.94 C61.7762,144.938 68.9466,147.937 78.8652,147.937 M134.119,127.097 C134.119,133.256 135.426,138.412 138.04,142.565 C140.654,146.719 144.843,148.796 150.608,148.796 C155.084,148.796 158.764,146.871 161.646,143.022 C164.528,139.173 165.97,133.649 165.97,126.452 C165.97,119.183 164.484,113.803 161.512,110.312 C158.54,106.821 154.869,105.075 150.501,105.075 C145.631,105.075 141.683,106.937 138.658,110.661 C135.632,114.385 134.119,119.864 134.119,127.097 M148.675,96.6426 C153.079,96.6426 156.767,97.5736 159.739,99.4355 C161.458,100.51 163.41,102.39 165.594,105.075 L165.594,76.0176 L174.886,76.0176 L174.886,155.188 L166.185,155.188 L166.185,147.185 C163.929,150.729 161.261,153.29 158.182,154.865 C155.102,156.441 151.575,157.229 147.601,157.229 C141.191,157.229 135.641,154.534 130.95,149.145 C126.259,143.756 123.914,136.586 123.914,127.634 C123.914,119.255 126.054,111.995 130.333,105.854 C134.611,99.7131 140.726,96.6426 148.675,96.6426 M211.995,148.957 C218.405,148.957 222.8,146.531 225.181,141.679 C227.562,136.827 228.753,131.429 228.753,125.485 C228.753,120.114 227.894,115.746 226.175,112.38 C223.453,107.08 218.763,104.431 212.103,104.431 C206.194,104.431 201.897,106.687 199.212,111.198 C196.526,115.71 195.184,121.153 195.184,127.526 C195.184,133.649 196.526,138.752 199.212,142.834 C201.897,146.916 206.159,148.957 211.995,148.957 M212.371,95.998 C219.783,95.998 226.049,98.4688 231.17,103.41 C236.29,108.352 238.851,115.62 238.851,125.217 C238.851,134.491 236.595,142.154 232.083,148.205 C227.571,154.257 220.571,157.282 211.082,157.282 C203.169,157.282 196.884,154.606 192.229,149.252 C187.575,143.899 185.247,136.711 185.247,127.688 C185.247,118.02 187.7,110.321 192.605,104.592 C197.511,98.8626 204.1,95.998 212.371,95.998 M273.167,148.957 C279.577,148.957 283.972,146.531 286.353,141.679 C288.734,136.827 289.925,131.429 289.925,125.485 C289.925,120.114 289.065,115.746 287.347,112.38 C284.625,107.08 279.935,104.431 273.274,104.431 C267.366,104.431 263.069,106.687 260.384,111.198 C257.698,115.71 256.355,121.153 256.355,127.526 C256.355,133.649 257.698,138.752 260.384,142.834 C263.069,146.916 267.33,148.957 273.167,148.957 M273.543,95.998 C280.955,95.998 287.221,98.4688 292.342,103.41 C297.462,108.352 300.022,115.62 300.022,125.217 C300.022,134.491 297.767,142.154 293.255,148.205 C288.743,154.257 281.743,157.282 272.254,157.282 C264.34,157.282 258.056,154.606 253.401,149.252 C248.746,143.899 246.419,136.711 246.419,127.688 C246.419,118.02 248.872,110.321 253.777,104.592 C258.683,98.8626 265.271,95.998 273.543,95.998 M380.032,112.434 C385.045,112.434 389.011,111.431 391.929,109.426 C394.848,107.421 396.307,103.804 396.307,98.5762 C396.307,92.9544 394.266,89.123 390.184,87.082 C387.999,86.0078 385.081,85.4707 381.429,85.4707 L355.325,85.4707 L355.325,112.434 L380.032,112.434 M344.637,76.2861 L381.16,76.2861 C387.176,76.2861 392.135,77.1634 396.038,78.918 C403.45,82.2839 407.156,88.4964 407.156,97.5557 C407.156,102.282 406.181,106.149 404.229,109.157 C402.277,112.165 399.547,114.582 396.038,116.408 C399.118,117.661 401.436,119.309 402.994,121.35 C404.551,123.391 405.42,126.703 405.599,131.286 L405.975,141.867 C406.082,144.875 406.333,147.113 406.727,148.581 C407.371,151.088 408.517,152.699 410.164,153.415 L410.164,155.188 L397.059,155.188 C396.701,154.507 396.414,153.63 396.199,152.556 C395.984,151.481 395.805,149.405 395.662,146.325 L395.018,133.166 C394.767,128.01 392.851,124.554 389.271,122.8 C387.229,121.833 384.025,121.35 379.656,121.35 L355.325,121.35 L355.325,155.188 L344.637,155.188 L344.637,76.2861 M431.164,97.6631 L431.164,135.852 C431.164,138.788 431.63,141.187 432.561,143.049 C434.279,146.486 437.484,148.205 442.175,148.205 C448.907,148.205 453.49,145.197 455.925,139.182 C457.25,135.959 457.912,131.537 457.912,125.915 L457.912,97.6631 L467.58,97.6631 L467.58,155.188 L458.449,155.188 L458.557,146.701 C457.303,148.885 455.746,150.729 453.884,152.233 C450.196,155.241 445.72,156.745 440.456,156.745 C432.256,156.745 426.67,154.006 423.698,148.527 C422.087,145.591 421.281,141.67 421.281,136.765 L421.281,97.6631 L431.164,97.6631 M482.668,97.6631 L491.853,97.6631 L491.853,105.827 C494.574,102.461 497.456,100.044 500.5,98.5762 C503.544,97.1081 506.927,96.374 510.651,96.374 C518.815,96.374 524.33,99.2207 527.194,104.914 C528.77,108.029 529.558,112.487 529.558,118.288 L529.558,155.188 L519.729,155.188 L519.729,118.933 C519.729,115.424 519.209,112.595 518.171,110.446 C516.452,106.866 513.337,105.075 508.825,105.075 C506.534,105.075 504.654,105.308 503.186,105.773 C500.536,106.561 498.208,108.137 496.203,110.5 C494.592,112.398 493.544,114.358 493.061,116.381 C492.578,118.404 492.336,121.296 492.336,125.056 L492.336,155.188 L482.668,155.188 L482.668,97.6631 M543.088,76.0176 L552.487,76.0176 L552.487,104.646 C554.6,101.888 557.124,99.7847 560.061,98.3345 C562.997,96.8843 566.184,96.1592 569.621,96.1592 C576.783,96.1592 582.592,98.6209 587.05,103.544 C591.508,108.468 593.737,115.728 593.737,125.324 C593.737,134.419 591.535,141.975 587.131,147.99 C582.727,154.006 576.621,157.014 568.815,157.014 C564.447,157.014 560.759,155.957 557.751,153.845 C555.961,152.591 554.045,150.586 552.004,147.829 L552.004,155.188 L543.088,155.188 L543.088,76.0176 M568.225,148.474 C573.452,148.474 577.364,146.397 579.96,142.243 C582.556,138.09 583.854,132.611 583.854,125.808 C583.854,119.756 582.556,114.743 579.96,110.769 C577.364,106.794 573.542,104.807 568.493,104.807 C564.089,104.807 560.231,106.436 556.918,109.694 C553.606,112.953 551.95,118.324 551.95,125.808 C551.95,131.215 552.631,135.601 553.991,138.967 C556.534,145.305 561.278,148.474 568.225,148.474 M627.839,148.957 C634.248,148.957 638.644,146.531 641.025,141.679 C643.406,136.827 644.597,131.429 644.597,125.485 C644.597,120.114 643.737,115.746 642.019,112.38 C639.297,107.08 634.606,104.431 627.946,104.431 C622.038,104.431 617.741,106.687 615.056,111.198 C612.37,115.71 611.027,121.153 611.027,127.526 C611.027,133.649 612.37,138.752 615.056,142.834 C617.741,146.916 622.002,148.957 627.839,148.957 M628.215,95.998 C635.627,95.998 641.893,98.4688 647.014,103.41 C652.134,108.352 654.694,115.62 654.694,125.217 C654.694,134.491 652.438,142.154 647.927,148.205 C643.415,154.257 636.415,157.282 626.926,157.282 C619.012,157.282 612.728,154.606 608.073,149.252 C603.418,143.899 601.091,136.711 601.091,127.688 C601.091,118.02 603.544,110.321 608.449,104.592 C613.355,98.8626 619.943,95.998 628.215,95.998 M668.117,81.6035 L677.893,81.6035 L677.893,97.6631 L687.077,97.6631 L687.077,105.559 L677.893,105.559 L677.893,143.103 C677.893,145.108 678.573,146.451 679.934,147.131 C680.686,147.525 681.939,147.722 683.693,147.722 C684.159,147.722 684.66,147.713 685.197,147.695 C685.734,147.677 686.361,147.632 687.077,147.561 L687.077,155.188 C685.967,155.51 684.812,155.743 683.613,155.886 C682.413,156.029 681.115,156.101 679.719,156.101 C675.207,156.101 672.146,154.946 670.534,152.636 C668.923,150.327 668.117,147.328 668.117,143.64 L668.117,105.559 L660.329,105.559 L660.329,97.6631 L668.117,97.6631 L668.117,81.6035 Z" style="stroke:none;fill-rule:nonzero;fill:#e80d00;fill-opacity:1;"/>
        </g>
    </g>
</svg>
